<svg width="43" height="44" viewBox="0 0 43 44" fill="none" xmlns="http://www.w3.org/2000/svg">
<rect x="0.000488281" y="0.797119" width="42.575" height="42.575" rx="21.2875" fill="#FFC6C8" fill-opacity="0.15"/>
<path d="M10.6443 15.699L18.0023 19.8681C20.715 21.4051 21.8611 21.4051 24.5738 19.8681L31.9318 15.699" stroke="white" stroke-width="1.59656" stroke-linejoin="round"/>
<path d="M10.6611 23.6559C10.7307 26.9188 10.7654 28.5502 11.9694 29.7588C13.1733 30.9673 14.8489 31.0093 18.2001 31.0935C20.2655 31.1454 22.3106 31.1454 24.376 31.0935C27.7272 31.0093 29.4027 30.9673 30.6067 29.7588C31.8107 28.5502 31.8455 26.9188 31.915 23.6559C31.9374 22.6067 31.9374 21.5638 31.915 20.5147C31.8455 17.2518 31.8107 15.6204 30.6067 14.4118C29.4027 13.2033 27.7272 13.1612 24.376 13.077C22.3106 13.0251 20.2655 13.0251 18.2001 13.077C14.8489 13.1612 13.1733 13.2033 11.9694 14.4118C10.7654 15.6203 10.7307 17.2518 10.6611 20.5147C10.6387 21.5638 10.6387 22.6067 10.6611 23.6559Z" stroke="white" stroke-width="1.59656" stroke-linejoin="round"/>
</svg>
