<svg width="38" height="38" viewBox="0 0 38 38" fill="none" xmlns="http://www.w3.org/2000/svg">
<path d="M9.75514 2.25767C9.65063 2.33035 9.60858 2.36579 9.61639 2.3718C9.72391 2.29792 9.78337 2.25287 9.75514 2.25767Z" fill="#2F312E"/>
<path d="M37.8438 17.2622C37.8401 17.1582 37.8365 17.0465 37.8329 16.9286C37.822 16.8114 37.7985 16.6899 37.7797 16.5655C37.6994 16.0688 37.6033 15.5425 37.5604 15.2047L37.5078 15.189C37.4281 14.7292 37.2788 14.3032 37.1223 13.7461L37.0891 13.792C36.9592 13.3116 36.7314 12.5641 36.4588 11.8227C36.4927 11.8668 36.5573 12.0566 36.5966 12.1931C36.5392 11.9629 36.4625 11.7321 36.3779 11.5031C36.2794 11.2795 36.1573 11.0644 36.0443 10.8493C35.805 10.4245 35.6062 9.99427 35.4123 9.61359C35.2878 9.43957 35.2129 9.30543 35.1446 9.17189C35.1555 9.1882 35.1651 9.20271 35.1742 9.216C35.1627 9.19727 35.1464 9.16947 35.1295 9.14107C35.0866 9.05648 35.0425 8.96886 34.9959 8.87581C35.0334 8.95798 35.0703 9.03533 35.1053 9.10119C35.0195 8.96101 34.8854 8.75133 34.7494 8.54891L34.7349 8.4341C34.724 8.41718 34.7156 8.40389 34.7047 8.38637C34.5941 8.17125 34.5857 8.23409 34.6225 8.3634C34.5567 8.26008 34.4745 8.18032 34.4147 8.11566C34.3609 7.91566 34.0116 7.61957 33.918 7.35793C33.8527 7.30415 33.6636 7.06306 33.4726 6.82982C33.2606 6.6135 33.046 6.40625 32.9717 6.38631C32.9741 6.37301 32.93 6.31621 33.0189 6.41289C32.8442 6.20624 32.6684 5.99898 32.4883 5.83583L32.4545 5.70894L32.2261 5.518L31.9795 5.347C31.7397 5.07931 31.643 4.9627 31.9397 5.16995C31.2502 4.64305 31.4061 4.71314 30.8103 4.28291L30.8635 4.27446C30.6526 4.11856 30.2858 3.90888 30.1789 3.78864C29.7861 3.32941 27.7873 2.14508 26.4235 1.49552C26.531 1.61334 26.3818 1.51848 26.186 1.41878C25.9866 1.32874 25.7455 1.21998 25.7014 1.25079C25.6289 1.19581 25.4361 1.1088 25.6748 1.17103C24.9394 0.940211 24.6065 0.705762 24.0633 0.664069C23.9853 0.615729 24.2343 0.667091 24.1624 0.632045C24.1007 0.622377 23.9183 0.593372 23.8445 0.557722C23.7726 0.522675 23.96 0.563764 24.082 0.5831C23.3146 0.390345 23.2185 0.451979 23.146 0.514217C22.9581 0.447145 22.8149 0.401222 22.6832 0.371614C22.549 0.354091 22.4264 0.349859 22.2801 0.353485C22.1484 0.307562 21.9242 0.245929 22.4082 0.310584C22.1381 0.269495 20.755 0.0108764 20.7194 0.0882202C20.6348 0.0676758 20.3369 0.06405 20.2644 0.0676755C19.6505 0.0326291 19.5961 0.0247742 18.993 0L19.1598 0.0187329C18.9211 0.0706983 18.6595 0.033838 18.1737 0.0670716L18.1876 0.0586122C17.6292 0.0592164 17.509 0.0719059 17.3912 0.0833866C17.332 0.0894291 17.2739 0.0948682 17.161 0.0984937C17.0474 0.096681 16.8812 0.106952 16.6075 0.138373L16.6721 0.175837C16.5845 0.292457 15.7011 0.261641 15.0751 0.400618C15.1518 0.393971 15.2304 0.39397 15.3077 0.390345C14.9706 0.469501 14.3319 0.487024 13.9826 0.554096C13.9059 0.564972 14.0962 0.509986 14.1989 0.477357C13.2883 0.650172 14.0986 0.566785 13.4382 0.751685C13.3077 0.756519 13.5687 0.618146 13.1252 0.751081C12.9016 0.815131 11.8913 1.29249 11.2943 1.4937C11.4303 1.45684 11.5638 1.42059 11.2846 1.57649C10.855 1.80368 10.0417 2.04538 9.70211 2.34388C9.64531 2.36986 9.62235 2.37651 9.61691 2.37228C9.30754 2.58437 8.59755 3.03212 8.43077 3.18439C8.05372 3.24904 6.61259 4.61525 6.55942 4.53428L5.71528 5.31256L5.72676 5.28113C5.44277 5.51558 5.30016 5.72465 5.17629 5.86665C5.05786 6.01469 4.98475 6.12285 4.91103 6.2298C4.78957 6.34824 4.86208 6.24733 4.86571 6.23162C4.10859 6.99236 4.09046 7.12107 3.60343 7.87457L3.50796 7.92109C3.44512 8.02563 3.19073 8.3199 2.93634 8.73744C2.80462 8.94469 2.6602 9.17189 2.51337 9.40271C2.36835 9.63595 2.22394 9.87523 2.13149 10.1236C2.13088 10.1115 2.13209 10.0879 2.1623 10.0094C2.04629 10.2831 1.90429 10.575 1.75504 10.8674C1.61123 11.1623 1.43539 11.4469 1.33388 11.7381C1.10426 12.3091 0.921174 12.801 0.930842 13.0312C0.84383 13.2759 0.816035 13.5388 0.758631 13.792C1.02269 12.8216 0.795491 13.9581 0.926612 13.566C0.922987 13.5829 0.918153 13.6004 0.913923 13.6173C0.883107 13.7231 0.852291 13.8294 0.823287 13.9358C0.73688 14.2089 0.654701 14.3956 0.732649 14.0669L0.759842 13.9956C0.720565 13.7998 0.404543 15.1956 0.374331 15.1618C-0.00211601 17.1135 -0.0824824 19.0628 0.0788519 20.9209C0.0927497 20.8478 0.101209 20.7747 0.124775 20.7009C0.142298 20.9161 0.183388 21.1288 0.211183 21.3427C0.220247 21.5131 0.190035 21.5765 0.122963 21.1179C0.119338 21.3644 0.274025 21.8823 0.291548 21.8919C0.399709 22.7935 0.155592 21.5554 0.195472 21.8303L0.258314 22.2037L0.253481 22.1179C0.292757 22.2617 0.316926 22.3499 0.346534 22.4581C0.3701 22.5705 0.405146 22.7119 0.477656 22.9808C0.551374 23.3252 0.479468 23.1657 0.511494 23.301C0.50666 23.3016 0.515725 23.3476 0.562253 23.5077L0.760445 24.3035L0.733253 23.9705C0.845643 24.3156 0.93024 24.7126 0.889755 24.3319C0.916342 24.6116 1.18463 25.3265 1.43297 26.0189C1.71878 26.6957 2.05716 27.3205 2.11034 27.4836C2.17378 27.5966 2.23542 27.706 2.29705 27.816C2.36654 27.9247 2.43663 28.0335 2.50793 28.1447C2.6463 28.3725 2.79132 28.6106 2.95266 28.8752C2.88257 28.7375 2.88921 28.6257 3.15871 29.0843C3.05901 29.0329 3.15448 29.2625 3.34119 29.5266C3.52669 29.7913 3.76295 30.1157 3.8554 30.3182C3.76416 30.1441 3.99559 30.4469 4.21251 30.7248C4.43125 31.0016 4.67537 31.2209 4.50014 30.9726C4.79199 31.3091 4.4808 31.0245 4.68504 31.2958C4.87356 31.4844 5.06451 31.688 5.25968 31.9031C5.35817 32.0095 5.45243 32.1237 5.55757 32.2306C5.66694 32.3333 5.77752 32.4379 5.88991 32.5436C6.34491 32.9599 6.78782 33.4433 7.3389 33.8095C7.36549 33.8077 7.20596 33.6554 7.44706 33.8035L7.95221 34.2887C8.17216 34.4289 8.18605 34.3703 8.5619 34.6609C8.51235 34.6138 8.43923 34.5437 8.5909 34.6295C10.7112 36.1147 13.3083 36.9643 15.8576 37.5238C15.512 37.4374 15.7464 37.4695 16.0147 37.5093C15.8419 37.4749 16.025 37.4676 15.9942 37.4392C16.3513 37.5105 16.7072 37.6036 17.0691 37.6568C17.2739 37.6024 18.2426 37.7118 18.3586 37.6556L18.0129 37.6495C18.2232 37.6266 18.1084 37.5837 17.9302 37.5359C18.2462 37.5516 18.5646 37.5601 18.8849 37.5601C22.4953 37.5601 25.8652 36.5353 28.7245 34.7642C28.7317 34.7624 28.7353 34.7624 28.7378 34.7636C28.7649 34.7437 28.7776 34.7328 28.7655 34.7382C30.1378 33.8832 31.3904 32.8548 32.495 31.685L32.5089 31.6862C32.5663 31.6221 32.6152 31.5647 32.6503 31.5218C32.7772 31.3841 32.8992 31.2433 33.0219 31.1025C32.8962 31.3061 33.1445 31.1925 33.4134 30.9901C33.405 30.9665 33.4098 30.9695 33.6491 30.6034C33.5584 30.7272 32.9862 31.3043 33.2056 31.0106C33.3905 30.7919 33.4624 30.7067 33.518 30.6402C33.5729 30.581 33.6098 30.5544 33.7017 30.4487C33.5621 30.5726 33.8648 30.1309 33.9476 29.9514C34.1325 29.7006 34.3113 29.445 34.4842 29.1846L34.5736 29.126L34.6255 28.9641C35.1096 28.2124 35.541 27.4244 35.9156 26.6045C36.0625 26.3942 35.7017 27.1797 35.8939 26.8262C35.8123 27.0286 35.7247 27.2462 35.6322 27.477C35.5827 27.5936 35.5301 27.7151 35.4703 27.8401C35.3996 27.9592 35.3228 28.0831 35.2383 28.2106L35.1265 28.2788C35.1476 28.2764 35.3664 27.9562 35.4371 27.7991C35.3301 28.0323 34.8818 28.558 34.805 28.8372L35.063 28.4927C34.8533 28.8746 34.6594 29.3961 34.2974 29.8088C34.4932 29.6432 34.3693 29.7067 34.6533 29.4311C34.4068 29.6704 35.3815 28.2396 35.0244 28.6535C35.1615 28.5048 35.2588 28.3622 35.3621 28.2051C35.4648 28.048 35.5821 27.8818 35.7186 27.6589C35.6939 27.6643 35.605 27.8075 35.8129 27.399C35.8165 27.3779 35.8316 27.3308 35.8413 27.3006C35.8479 27.2885 35.8504 27.2842 35.8558 27.2734L35.8425 27.2951C35.8485 27.2758 35.8485 27.274 35.8377 27.303C35.7827 27.3972 35.7349 27.4722 35.7096 27.4993C35.7676 27.274 36.0836 26.6214 36.1682 26.3906C36.2939 26.1507 36.1398 26.5017 36.2232 26.3773C36.2685 26.2637 36.3072 26.1476 36.3344 26.0268C36.3875 26.0105 36.6504 25.3772 36.454 25.9875L36.654 25.4467C36.7912 25.1355 36.9706 24.7017 37.0383 24.4213C37.1157 24.1603 37.1628 23.7427 37.1368 23.9814L37.3356 23.0992L37.3483 23.0938C37.4818 22.6666 37.5084 22.2043 37.5761 21.7354C37.6335 21.2647 37.735 20.7843 37.7785 20.2762C37.7827 19.9753 37.7846 19.6659 37.8226 19.1643L37.8655 19.0671C37.8782 18.6822 37.8583 17.9075 37.8202 17.7438C37.8414 17.6392 37.8474 17.4688 37.8438 17.2622ZM37.1598 14.2959C37.1658 14.3304 37.2123 14.5866 37.2619 14.8651C37.3211 15.1394 37.3132 15.4464 37.3205 15.56C37.3199 15.5769 37.3187 15.589 37.3175 15.5999C37.2794 15.3836 37.2413 15.1678 37.196 14.9545L37.2625 14.9268L37.1755 14.8669C37.1277 14.6452 37.0782 14.4234 37.0226 14.2041C37.0715 14.1998 37.1217 14.227 37.1598 14.2959ZM36.0582 11.1568C36.1597 11.3405 36.2685 11.5218 36.344 11.7176C36.2703 11.581 36.1084 11.3623 35.9319 11.1145C35.7839 10.7883 35.6274 10.4662 35.4612 10.1502C35.6407 10.3876 35.8413 10.6771 36.0189 11.0016L36.0582 11.1568ZM31.924 5.31134C31.8823 5.30047 31.8732 5.33068 31.869 5.36814C31.7777 5.27992 31.6865 5.1911 31.5934 5.10469C31.7034 5.17358 31.8128 5.24246 31.924 5.31134ZM22.9762 0.509383C23.0651 0.543221 22.9841 0.544427 22.8554 0.538385C22.9074 0.54624 22.9569 0.553491 22.9968 0.558929C23.0675 0.583704 23.1068 0.601227 23.1255 0.613916C23.0107 0.587329 22.8965 0.558929 22.7811 0.534155C22.8052 0.535363 22.833 0.537176 22.8554 0.538385C22.8046 0.531738 22.7496 0.522072 22.6928 0.513613C22.6173 0.497902 22.5406 0.485817 22.465 0.471315C22.3605 0.439894 22.2675 0.412098 22.2064 0.39397C22.4644 0.420557 22.7243 0.445937 22.9762 0.509383ZM0.547749 23.3681L0.527809 23.2406C0.613008 23.518 0.580983 23.4424 0.547749 23.3681ZM33.1633 30.9405C33.2896 30.7913 33.4134 30.6402 33.5349 30.4874C33.4467 30.6257 33.318 30.7961 33.1633 30.9405ZM36.7815 25.0207C36.7827 25.0147 36.7833 25.0111 36.7845 25.0056C36.9114 24.712 36.8661 24.8159 36.7815 25.0207ZM37.3815 22.391C37.3453 22.7439 37.2897 22.8104 37.2812 22.8122C37.2661 22.8128 37.2679 22.7421 37.2589 22.8025C37.0873 23.4418 37.0522 23.7234 37.0178 23.979C36.9845 24.234 36.9628 24.466 36.7332 24.9712C36.5332 25.3645 36.6274 24.9549 36.5579 25.0334C36.6449 24.7609 36.7344 24.5591 36.8039 24.3748C36.8631 24.1875 36.9187 24.0225 36.9658 23.834L36.8226 24.2902C36.8353 24.211 36.8588 24.0944 36.8854 23.9736C37.0522 23.3886 37.1906 22.7923 37.3 22.1856C37.2993 22.191 37.2987 22.1953 37.2981 22.2007C37.2909 22.324 37.2691 22.5131 37.2969 22.4382L37.3604 21.9294C37.3574 21.9101 37.3507 21.9209 37.3435 21.9433C37.3888 21.6702 37.4274 21.3952 37.4613 21.1185C37.4679 21.391 37.4407 21.8454 37.3815 22.391ZM37.5846 18.1039C37.5803 18.003 37.5785 17.9015 37.5731 17.8012C37.587 17.8948 37.5997 17.9891 37.6075 18.0767C37.5997 18.0652 37.5918 18.0809 37.5846 18.1039Z" fill="url(#paint0_linear_9_2164)"/>
<path d="M19.0283 37.7922C18.8541 37.797 18.9166 37.8349 18.8901 37.8439C19.1827 37.8199 19.0205 37.782 19.0283 37.7922Z" fill="url(#paint1_linear_9_2164)"/>
<path d="M21.8484 37.4676L22.2614 37.3625L21.8961 37.4429L21.8484 37.4676Z" fill="url(#paint2_linear_9_2164)"/>
<path d="M23.0452 37.2038L22.8472 37.3125C23.4124 37.1567 24.1382 36.9363 24.5404 36.8457C24.2753 36.8487 23.5978 37.1017 23.1255 37.199L23.0452 37.2038Z" fill="url(#paint3_linear_9_2164)"/>
<path d="M25.6208 36.6003C25.6522 36.593 25.6619 36.59 25.6806 36.5858C25.7356 36.5658 25.8117 36.5387 25.9415 36.4922C25.8473 36.4976 26.2271 36.3623 25.6208 36.6003Z" fill="url(#paint4_linear_9_2164)"/>
<path d="M25.6892 36.5858C25.4219 36.6856 25.8724 36.5432 25.6892 36.5858V36.5858Z" fill="url(#paint5_linear_9_2164)"/>
<path d="M26.8934 36.0567L26.5637 36.2427C26.641 36.2234 26.946 36.0809 26.8385 36.1455C27.1821 35.9649 27.1024 35.9855 26.8934 36.0567Z" fill="url(#paint6_linear_9_2164)"/>
<path d="M27.1959 35.8555L27.0259 35.9492C27.0589 35.9402 27.1064 35.9197 27.1959 35.8555Z" fill="url(#paint7_linear_9_2164)"/>
<path d="M26.656 36.148L27.0195 35.9487C26.9652 35.962 26.9507 35.9439 26.8517 36.0381C26.874 36.0049 26.8088 36.0586 26.656 36.148Z" fill="url(#paint8_linear_9_2164)"/>
<path d="M26.3249 36.2417C25.9958 36.3836 25.8527 36.4397 25.8835 36.4452C25.91 36.4404 26.1178 36.4017 26.4396 36.2405C26.2458 36.3244 25.9843 36.4035 26.3249 36.2417Z" fill="url(#paint9_linear_9_2164)"/>
<path d="M24.1414 36.8794C24.1981 36.8588 24.3304 36.8299 24.4445 36.8039C24.558 36.7737 24.6516 36.7363 24.6401 36.7302C24.5508 36.7562 24.4614 36.7834 24.3684 36.7966L24.1414 36.8794Z" fill="url(#paint10_linear_9_2164)"/>
<path d="M28.9718 34.967C28.9839 34.9422 28.842 34.999 28.8082 34.9978L28.5793 35.1566C28.7068 35.0907 28.9435 34.9579 28.9718 34.967Z" fill="url(#paint11_linear_9_2164)"/>
<path d="M28.8077 34.9979L29.1495 34.76C28.8307 34.9508 28.7788 34.9961 28.8077 34.9979Z" fill="url(#paint12_linear_9_2164)"/>
<path d="M26.6189 36.1L27.3272 35.6985L27.2095 35.7559L26.6189 36.1Z" fill="url(#paint13_linear_9_2164)"/>
<path d="M30.1138 34.2347L30.4205 33.9407L30.2828 34.0651L30.1138 34.2347Z" fill="url(#paint14_linear_9_2164)"/>
<path d="M31.2009 33.4273C31.411 33.2299 31.5771 33.0457 31.7257 32.8809C31.5602 33.0475 31.3724 33.2142 31.1176 33.4135C31.0065 33.5536 31.3271 33.2891 31.2009 33.4273Z" fill="url(#paint15_linear_9_2164)"/>
<path d="M29.7441 34.3709C29.7749 34.3589 29.8383 34.3414 30.031 34.2097L29.8752 34.2737C29.8353 34.3033 29.79 34.3371 29.7441 34.3709Z" fill="url(#paint16_linear_9_2164)"/>
<path d="M29.8738 34.2759L29.8792 34.2735C30.0223 34.1684 30.1214 34.0954 30.1636 34.064C30.1274 34.0911 30.0398 34.1545 29.8738 34.2759Z" fill="url(#paint17_linear_9_2164)"/>
<path d="M28.3894 35.0808C28.2548 35.1961 28.5054 35.0675 28.2095 35.2885C28.4069 35.1412 28.826 34.8574 28.3894 35.0808Z" fill="url(#paint18_linear_9_2164)"/>
<path d="M29.134 34.7506C29.262 34.6576 29.3967 34.5761 29.5181 34.4746C29.3985 34.5598 29.2657 34.625 29.1407 34.7011C29.154 34.7059 29.2306 34.6781 29.134 34.7506Z" fill="url(#paint19_linear_9_2164)"/>
<path d="M29.6544 34.3798L29.6868 34.3347L29.5222 34.4741L29.6544 34.3798Z" fill="url(#paint20_linear_9_2164)"/>
<path d="M31.4014 33.0891C31.5306 32.9472 31.684 32.8059 31.8561 32.6453C31.6635 32.8089 31.4678 32.981 31.2842 33.1477C31.2673 33.1809 31.2021 33.2721 31.4014 33.0891Z" fill="url(#paint21_linear_9_2164)"/>
<path d="M30.6704 33.686C30.6806 33.6776 30.6932 33.6667 30.7028 33.6589C30.68 33.6715 30.6625 33.683 30.6704 33.686Z" fill="url(#paint22_linear_9_2164)"/>
<path d="M33.4553 30.9661L33.4247 30.9889L33.4241 30.9997L33.4553 30.9661Z" fill="url(#paint23_linear_9_2164)"/>
<path d="M31.2407 33.1704C31.0952 33.2918 31.0179 33.3757 30.946 33.4584C31.0499 33.3606 31.1598 33.258 31.277 33.1481C31.2848 33.133 31.2848 33.1281 31.2407 33.1704Z" fill="url(#paint24_linear_9_2164)"/>
<path d="M32.4516 32.1455C32.3803 32.2143 32.2982 32.2904 32.2034 32.3623C32.2879 32.311 32.4371 32.1805 32.4516 32.1455Z" fill="url(#paint25_linear_9_2164)"/>
<path d="M30.7645 33.6296L30.7429 33.6482C30.7982 33.6182 30.7892 33.6194 30.7645 33.6296Z" fill="url(#paint26_linear_9_2164)"/>
<path d="M30.7635 33.6284C30.8378 33.565 30.8934 33.5113 30.9489 33.4575C30.8608 33.53 30.7786 33.5976 30.7056 33.658C30.7255 33.6459 30.7472 33.6357 30.7635 33.6284Z" fill="url(#paint27_linear_9_2164)"/>
<path d="M32.8569 31.6031L32.7397 31.739C32.8823 31.5923 32.9922 31.4945 33.1969 31.3145C33.3841 31.0802 33.4142 31.0253 33.4185 31.0017L32.8201 31.6521L32.8569 31.6031Z" fill="url(#paint28_linear_9_2164)"/>
<path d="M32.3321 32.0327C31.9704 32.4107 32.0918 32.3111 31.878 32.5406C32.4982 31.9627 31.7144 32.7217 32.1842 32.3262C32.0622 32.4427 31.9547 32.5454 31.8521 32.6432C31.9692 32.5454 32.0827 32.4512 32.1908 32.3612C32.1848 32.3654 32.1799 32.3685 32.1745 32.3727L32.1715 32.3757V32.3745C32.1407 32.3956 32.1298 32.4011 32.1624 32.3757C32.1648 32.3733 32.1721 32.3666 32.1751 32.363C32.1751 32.3552 32.1836 32.3407 32.1926 32.3256C32.381 32.1662 32.2289 32.3075 32.1751 32.363C32.1745 32.3666 32.1703 32.3721 32.1715 32.3745L32.1745 32.3727C32.3834 32.1807 32.5531 31.9482 32.7433 31.738C32.6141 31.8636 32.4758 32.0436 32.1926 32.3256C32.2747 32.209 32.538 31.8667 32.3321 32.0327Z" fill="url(#paint29_linear_9_2164)"/>
<path d="M28.7291 34.8293L28.7774 34.7937C29.0141 34.6639 29.3136 34.5226 29.4042 34.4875C29.3082 34.5069 29.2164 34.5322 29.0213 34.6113C28.9718 34.6482 28.9374 34.6892 28.7647 34.7889C28.6101 34.868 28.755 34.7714 28.7393 34.7641C28.6433 34.8348 28.3964 35.0075 28.7291 34.8293Z" fill="url(#paint30_linear_9_2164)"/>
<path d="M29.4111 34.4875C29.4201 34.4857 29.4286 34.4833 29.4376 34.4821C29.4478 34.4749 29.4346 34.4785 29.4111 34.4875Z" fill="url(#paint31_linear_9_2164)"/>
<path d="M30.687 33.5302C30.8766 33.3913 31.0403 33.221 31.2105 33.0586L30.9219 33.2718L30.9491 33.2766C30.6369 33.526 30.713 33.4831 30.687 33.5302Z" fill="url(#paint32_linear_9_2164)"/>
<path d="M33.4978 31.0189C33.5787 30.9078 33.6343 30.7768 33.7025 30.6572L33.5268 30.9211L33.4978 31.0189Z" fill="url(#paint33_linear_9_2164)"/>
<path d="M34.0813 30.2294L34.2087 30.0205L34.071 30.1793L34.0813 30.2294Z" fill="url(#paint34_linear_9_2164)"/>
<path d="M34.7183 8.33101L34.7315 8.43427C34.8481 8.6112 34.929 8.7531 34.993 8.87629C34.8656 8.59791 34.7352 8.27545 34.7183 8.33101Z" fill="url(#paint35_linear_9_2164)"/>
<path d="M37.6251 21.5384C37.6813 21.2817 37.7193 21.0758 37.7489 20.8953C37.6771 21.205 37.6028 21.4508 37.6251 21.5384Z" fill="url(#paint36_linear_9_2164)"/>
<path d="M37.8 20.1392C37.7946 20.1863 37.7891 20.2297 37.7831 20.2768C37.7759 20.4683 37.7873 20.6633 37.7505 20.8946C37.803 20.6657 37.8115 20.397 37.8 20.1392Z" fill="url(#paint37_linear_9_2164)"/>
<path d="M16.0239 37.5103C16.0867 37.5229 16.193 37.5386 16.3766 37.561C16.2914 37.5489 16.1538 37.529 16.0239 37.5103Z" fill="url(#paint38_linear_9_2164)"/>
<path d="M36.014 27.0168C35.9317 27.194 36.005 27.0469 36.014 27.0168V27.0168Z" fill="url(#paint39_linear_9_2164)"/>
<path d="M35.4392 27.7941C35.453 27.7551 35.4608 27.7239 35.4548 27.7148C35.4566 27.7341 35.4506 27.7617 35.4392 27.7941Z" fill="url(#paint40_linear_9_2164)"/>
<path d="M35.8645 27.2735C35.9007 27.2077 35.9406 27.1334 35.9847 27.0537C35.9647 27.0899 35.9285 27.157 35.8645 27.2735Z" fill="url(#paint41_linear_9_2164)"/>
<path d="M35.906 27.2485C35.8754 27.3086 35.8513 27.3555 35.8285 27.3999C35.8237 27.4251 35.8375 27.4077 35.906 27.2485Z" fill="url(#paint42_linear_9_2164)"/>
<path d="M36.0001 27.0165C36.0249 26.9646 36.0593 26.8915 36.1166 26.7695C36.0665 26.8698 36.02 26.9628 35.9753 27.0533C35.9941 27.0201 36.0031 27.0068 36.0001 27.0165Z" fill="url(#paint43_linear_9_2164)"/>
<path d="M35.0528 28.8071L35.263 28.4375C35.1585 28.6144 35.1114 28.6718 35.051 28.7563C35.0655 28.7539 35.1211 28.6935 35.0528 28.8071Z" fill="url(#paint44_linear_9_2164)"/>
<path d="M34.7258 29.0569C34.6679 29.0587 34.5664 29.3081 34.3853 29.5412L34.4167 29.4995C34.413 29.6028 34.5875 29.3407 34.7258 29.0569Z" fill="url(#paint45_linear_9_2164)"/>
<path d="M34.1634 29.817C34.161 29.8574 34.2334 29.7312 34.3258 29.5984C34.2715 29.6715 34.2165 29.7451 34.1634 29.817Z" fill="url(#paint46_linear_9_2164)"/>
<path d="M36.2574 26.4247C36.1867 26.5473 36.2658 26.525 36.2163 26.5902C36.2006 26.7544 36.5569 25.7152 36.2574 26.4247Z" fill="url(#paint47_linear_9_2164)"/>
<path d="M35.4607 27.6116C35.471 27.6092 35.4493 27.6654 35.4209 27.733C35.5477 27.4734 35.6944 27.192 35.6763 27.1956L35.4607 27.6116Z" fill="url(#paint48_linear_9_2164)"/>
<path d="M35.4203 27.7336C35.3508 27.8671 35.2705 27.9861 35.2361 28.0627C35.2759 27.9921 35.3726 27.8448 35.4203 27.7336Z" fill="url(#paint49_linear_9_2164)"/>
<path d="M17.8174 37.7469L18.2105 37.7879L17.9581 37.7415L17.8174 37.7469Z" fill="url(#paint50_linear_9_2164)"/>
<path d="M18.5571 37.709L18.6489 37.7772L18.8856 37.7313C18.7969 37.7295 18.6248 37.7265 18.5571 37.709Z" fill="url(#paint51_linear_9_2164)"/>
<path d="M20.8751 12.1516C20.8727 12.1852 20.8679 12.2159 20.8667 12.2507C20.8715 12.2027 20.8757 12.1744 20.8751 12.1516Z" fill="#EFEBE4"/>
<path d="M21.2904 11.8039L21.3043 11.7781C21.2724 11.7967 21.2616 11.8075 21.2904 11.8039Z" fill="#EFEBE4"/>
<path d="M23.9579 7.34229C23.8885 7.33082 23.7822 7.31995 23.6216 7.30908L23.9579 7.34229Z" fill="#EFEBE4"/>
<path d="M22.5931 14.5954L22.7367 14.5437C22.512 14.5437 22.6111 14.5695 22.5931 14.5954Z" fill="#EFEBE4"/>
<path d="M20.8358 28.0339L20.8298 28.0736C20.8364 28.0778 20.8364 28.0598 20.8358 28.0339Z" fill="#EFEBE4"/>
<path d="M14.0953 14.9238H14.1055C14.0707 14.9142 14.0767 14.916 14.0953 14.9238Z" fill="#EFEBE4"/>
<path d="M20.8472 18.9049C20.8412 18.9031 20.8352 18.9019 20.8286 18.9001C20.7649 18.9212 20.7955 18.9176 20.8472 18.9049Z" fill="#EFEBE4"/>
<path d="M17.326 8.21143L17.3164 8.22224C17.3212 8.21923 17.3272 8.21503 17.332 8.21203L17.326 8.21143Z" fill="#EFEBE4"/>
<path d="M17.6864 7.94043C17.556 8.09683 17.4606 8.1403 17.335 8.21216C17.4008 8.21941 17.4726 8.23933 17.5385 8.25383C17.5838 8.15178 17.6327 8.04731 17.6864 7.94043Z" fill="#EFEBE4"/>
<path d="M23.6149 11.8149C23.6887 11.7986 23.7388 11.7804 23.8476 11.7635C24.1001 11.7678 24.2542 11.7895 24.3769 11.8161C24.3962 11.7647 24.4186 11.7381 24.4391 11.7049C24.4452 11.3037 24.4216 11.4372 24.395 11.5345C24.3684 11.6336 24.3382 11.6898 24.331 11.2735C24.3352 11.149 24.3388 11.0378 24.3418 10.9297C24.3425 10.8475 24.3394 10.7677 24.3352 10.6855C24.3255 10.5212 24.3062 10.3484 24.2838 10.1302C24.3098 9.87525 24.3298 10.175 24.3515 10.0831L24.2917 9.85652C24.2929 9.80093 24.3116 9.81906 24.3207 9.82812C24.2971 9.63778 24.2452 9.81241 24.2246 9.5127C24.1418 9.43173 24.3461 8.89758 24.2518 8.52657C24.273 8.43533 24.2977 8.57068 24.3273 8.54288C24.2657 8.02625 24.2826 8.14408 24.1992 7.59663L24.221 7.37064L23.9654 7.34284C24.2875 7.39964 23.7539 7.46611 23.4935 7.5211C23.508 7.52533 23.5195 7.52895 23.5334 7.53318C23.4995 7.53318 23.4681 7.53318 23.4318 7.53318C23.453 7.52895 23.4711 7.52533 23.4935 7.5211L23.4409 7.50539C23.4167 7.51506 23.3956 7.52352 23.3726 7.53258C23.2989 7.53258 23.2222 7.53258 23.1412 7.53258C23.1412 7.51022 23.1998 7.48424 23.2723 7.45886L23.4409 7.50539C23.5497 7.45947 23.6711 7.40871 23.6536 7.3652C23.6035 7.37366 23.5539 7.38152 23.4874 7.38575C23.5177 7.37366 23.537 7.36218 23.5231 7.35493C23.5074 7.34708 23.4584 7.36399 23.3823 7.38272L23.276 7.29873L23.25 7.33197L22.6391 7.2794C22.2016 7.36399 21.8215 7.48847 21.1272 7.52291C21.2995 7.46128 21.1641 7.422 21.1738 7.34949C21.3629 7.42683 21.7116 7.31686 22.0711 7.33257C21.8832 7.32472 21.9249 7.28967 21.9726 7.27759L21.3309 7.34768C21.3454 7.28786 21.1943 7.30297 21.0269 7.27819C21.1562 7.39179 20.5435 7.3646 20.2795 7.41052C20.2608 7.37125 20.3218 7.32895 20.6475 7.32955C20.2837 7.24677 20.1931 7.48545 19.8396 7.44375C19.9181 7.43529 19.961 7.43771 19.9907 7.41475C19.8094 7.45644 19.3592 7.50297 19.4583 7.45342L19.5369 7.43953C19.274 7.46853 18.8746 7.5501 18.5459 7.67216C18.2148 7.78999 17.9634 7.95011 17.9507 8.01175C17.9398 8.00268 17.961 7.87338 17.9827 7.84075C17.8577 7.95676 17.7428 8.07942 17.6419 8.21417C17.6033 8.25888 17.5694 8.30723 17.535 8.35496C17.4516 8.41176 17.3743 8.474 17.2981 8.53684C17.2087 8.48971 17.0909 8.44499 17.3175 8.22082C17.2141 8.29997 17.054 8.36825 16.8884 8.59787C16.9609 8.54047 17.1277 8.53019 17.0504 8.62083C16.7573 8.79183 16.8443 8.73383 16.5344 9.01541C16.6334 8.92175 16.6395 9.11269 16.5344 9.28248C16.5331 9.24381 16.4123 9.2275 16.4389 9.15317C16.3936 9.33203 16.3295 9.49518 16.3102 9.67222C16.3386 9.54533 16.2177 9.60213 16.1368 9.697C16.1591 9.67706 16.1144 9.78099 16.0582 9.90728C16.0141 10.0366 15.9645 10.1907 15.9506 10.2583L16.0443 10.0565C15.9434 10.3327 15.9597 10.4855 15.9827 10.633C15.9984 10.7798 16.0244 10.9224 15.9948 11.1986C15.9748 11.1303 15.8461 11.0112 15.7972 11.2995C15.8274 11.3768 15.9102 11.5412 15.9893 11.7508C15.9887 11.7956 15.9851 11.8378 15.9851 11.8832C15.9851 12.0572 15.9851 12.2197 15.9851 12.3756C15.8951 12.1098 15.8038 11.8058 15.767 11.5889C15.7301 11.8022 15.7162 11.6505 15.715 11.9684C15.6775 12.0802 15.66 11.798 15.6636 11.6977C15.6437 11.9563 15.6443 12.1877 15.634 12.4336C15.7132 12.401 15.7138 12.9908 15.7796 12.963L15.6975 12.172C15.7766 12.14 15.9222 12.6294 15.9084 13.1454C15.8769 13.2766 15.7676 13.0476 15.741 13.0578C15.7682 13.1249 15.7929 13.5479 15.7736 13.595L15.7313 13.3763C15.7017 13.6633 15.8364 13.8452 15.7609 14.1902C15.7585 14.2494 15.7331 14.3388 15.7138 14.4156C15.7089 14.4355 15.7047 14.4536 15.7011 14.47C15.6981 14.4772 15.6957 14.4839 15.6938 14.4887C15.6914 14.4984 15.6938 14.505 15.7053 14.5092C15.7506 14.4947 15.8431 14.4047 15.9325 14.3932C15.9513 14.3896 15.967 14.395 15.9845 14.395C15.9845 14.5848 15.9845 14.7159 15.9845 14.7987C15.9742 14.7854 15.9639 14.7697 15.9531 14.757L15.9537 14.8307L15.9839 14.8524C15.9839 14.905 15.9839 14.9274 15.9839 14.9274H15.6437C15.6177 14.8984 15.6673 14.8669 15.6975 14.8361C15.7434 14.795 15.7549 14.7552 15.6878 14.7249C15.6999 14.7467 15.6449 14.7733 15.6141 14.7817C15.5694 14.7727 15.5766 14.7558 15.5706 14.7425C15.5543 14.7292 15.5808 14.7195 15.4334 14.7243C15.3881 14.8047 14.8805 14.7177 15.3047 14.792C15.0388 14.815 15.0219 14.7757 14.7095 14.7793C14.7754 14.8138 14.6298 14.8796 14.4473 14.9274H14.1065C14.1004 14.925 14.0944 14.9219 14.0896 14.9195C13.8998 14.9141 13.7391 14.9092 13.5917 14.905C13.585 15.0561 13.5784 15.1957 13.5717 15.3407C13.5657 15.4869 13.5621 15.6271 13.5614 15.7981C13.5421 15.8452 13.5185 16.0905 13.4841 15.986C13.4986 16.0591 13.5258 16.1262 13.5276 16.2833C13.4581 16.5866 13.5167 15.9334 13.4333 16.1649C13.4799 16.1848 13.4974 16.5703 13.527 16.7939C13.5989 16.725 13.5409 16.2779 13.5119 16.0543C13.5463 16.0537 13.5814 16.1026 13.614 16.186V17.8193C13.5971 18.0248 13.5983 18.4 13.5953 18.8151C13.9149 18.8175 14.237 18.8236 14.4666 18.8435C14.5434 18.8284 14.6576 18.8133 14.6884 18.7964H15.9845V19.5898C15.976 19.5831 15.9676 19.5813 15.9579 19.5898L15.9845 19.8574V19.8876C15.9712 19.8786 15.9525 19.794 15.941 19.8713C15.9573 19.878 15.973 19.9197 15.9845 19.9801V20.4206C15.9833 20.4285 15.9827 20.4363 15.9809 20.4442C15.9815 20.4502 15.9833 20.4532 15.9845 20.4587V20.8266C15.9827 20.8393 15.9809 20.8557 15.9797 20.8774C15.9839 20.901 15.9839 20.9264 15.9845 20.9511V30.1581H16.6286C16.7452 30.2052 16.8691 30.2547 16.851 30.3061C17.1585 30.2064 17.6625 30.4541 18.1682 30.3109C18.2794 30.3339 18.0728 30.3472 18.1326 30.3732C18.2607 30.3248 18.4154 30.3146 18.7018 30.3363L18.6692 30.3484C19.0402 30.343 19.3139 30.3502 19.5919 30.3623C19.7302 30.3695 19.8704 30.3762 20.0245 30.384C20.2535 30.3913 20.5031 30.3992 20.7913 30.4082C20.7931 30.3375 20.7961 30.2354 20.7985 30.1285C20.7798 30.1526 20.7611 30.1738 20.7429 30.1919C20.7502 29.9164 20.7677 29.8596 20.7822 29.7212C20.6976 29.3919 20.7774 30.5254 20.6843 30.1695C20.7127 30.1073 20.7272 29.9484 20.7345 29.7442C20.7417 29.5762 20.7429 29.4251 20.7442 29.2535C20.7466 28.9212 20.7508 28.5997 20.8155 28.5127C20.8161 28.2136 20.7508 28.6003 20.7514 28.3012L20.7864 28.222L20.7411 28.1465C20.7484 27.9507 20.7925 27.8516 20.8221 27.8444C20.8185 27.8921 20.8306 27.9797 20.833 28.0305C20.8741 27.7761 20.8191 27.3139 20.8324 27.2262L20.8106 27.5133C20.778 26.6975 20.8239 25.7011 20.7526 24.9126L20.7266 24.9724C20.6777 24.3706 20.7556 24.4902 20.7327 23.8292L20.7387 23.8533C20.7127 23.721 20.6994 23.5446 20.7025 23.3633C20.7333 23.5301 20.7623 23.0491 20.7967 23.2684C20.7442 22.6158 20.7556 22.9457 20.6577 22.5143L20.7013 22.4146C20.662 22.2678 20.6408 22.2551 20.6293 21.9252C20.6668 22.1959 20.6958 21.7143 20.7454 22.0176C20.8408 21.3252 20.6487 20.9892 20.7889 20.6714C20.668 20.3535 20.7218 21.2708 20.6958 21.0925C20.6565 21.2418 20.6058 20.8303 20.6179 20.6127C20.6209 20.3916 20.7726 20.2369 20.7701 19.6798C20.7695 19.7354 20.7786 19.739 20.778 19.794C20.7931 19.6901 20.7828 19.5879 20.775 19.4798C20.7707 19.426 20.7677 19.3704 20.7683 19.3124C20.7689 19.255 20.7738 19.1831 20.7864 19.1686C20.7133 19.0719 20.7907 19.0163 20.6976 18.91L20.7194 19.2677C20.7121 19.1704 20.6988 19.1493 20.6837 19.0755C20.6686 19.0115 20.6523 18.9341 20.6408 18.8453C20.7405 18.8278 20.871 18.8205 21.0578 18.8435C21.0064 18.8622 20.9103 18.887 20.8541 18.9009C20.9061 18.9148 20.9448 18.91 20.9889 18.9057C21.0499 18.9015 21.123 18.8967 21.1937 18.9112C21.1846 18.9456 21.0747 18.9577 20.9798 18.9619C20.917 18.9668 20.8342 18.9644 20.7653 18.971C20.7695 19.0266 20.7786 19.0822 20.7967 19.1239C20.8136 19.1033 20.804 19.0544 20.7949 19.0012C20.8451 18.9891 20.8874 18.9783 20.8855 19.0363C20.8843 19.0042 20.9085 18.9891 20.9393 18.9831C20.955 18.9801 20.972 18.9795 20.9901 18.9795C21.0245 18.9807 21.0608 18.9825 21.0988 18.9837C21.2547 18.9915 21.4306 19.003 21.6191 18.9541L21.5943 19.0103C21.6541 19.0012 21.7774 18.9752 21.8874 18.9764L21.6886 19.0489C21.9937 18.9873 22.2771 19.1033 22.5696 19.0695C21.9569 19.0713 22.4318 19.0024 22.1726 18.9613C22.5509 18.9239 22.6596 18.9607 22.7793 19.003C22.8391 19.0242 22.9019 19.0471 23.0028 19.0628C23.0536 19.0707 23.1128 19.0767 23.1865 19.0804C23.2246 19.081 23.2657 19.0822 23.3116 19.0834C23.3883 19.0828 23.4717 19.0822 23.5642 19.081C23.2892 19.0888 23.0361 19.0477 23.2028 19.0218C23.314 19.029 23.4433 19.0381 23.5672 19.0465C23.7128 19.0568 23.853 19.0695 23.9515 19.0846C23.9805 19.084 24.0071 19.084 24.027 19.0834C24.0578 18.6616 24.0391 18.7136 24.0137 18.803C23.9884 18.8955 23.9581 19.0181 23.9588 18.826C24.0035 18.7039 24.0077 18.5807 23.9998 18.4598C23.9944 18.3178 23.969 18.2713 23.9696 18.1371L24.0264 18.1402C24.1195 17.5069 23.9237 17.9607 24.018 17.3921L24.0748 17.6411L24.0808 17.3407L24.1394 17.4078C24.1207 17.0785 24.1418 16.9782 24.1878 16.6616C24.1412 16.7323 24.0887 16.6108 24.1122 16.3286C24.163 16.1395 24.1563 16.441 24.1835 16.041C24.2107 16.1341 24.2464 16.2374 24.1793 16.4066C24.1962 16.4259 24.2071 16.4984 24.2234 16.519C24.2802 16.3153 24.2784 15.9993 24.2905 15.8549C24.2832 15.9105 24.2742 15.977 24.2633 16.0102L24.2373 15.415C24.2718 15.2688 24.2766 15.4047 24.2869 15.4815C24.2941 15.3328 24.2814 15.1781 24.2989 14.9292C24.3412 14.9715 24.3944 14.9165 24.3775 15.3503L24.4023 14.6114L24.1974 14.6222C24.16 14.6023 23.7376 14.5672 23.8693 14.5503C23.5237 14.537 23.3968 14.5594 23.1865 14.5805C22.9853 14.6017 22.772 14.6222 22.5684 14.6041C22.5472 14.6132 22.5049 14.6216 22.4179 14.6283C22.0354 14.618 21.6958 14.5612 21.2427 14.6246C21.1599 14.5968 21.0638 14.5697 20.9925 14.5419C20.9653 14.5515 20.9653 14.5775 20.9816 14.6047C20.9937 14.6325 21.0215 14.6615 20.8807 14.6772C20.83 14.6839 20.8003 14.6826 20.7901 14.6772C20.807 14.6156 20.8662 14.6053 20.8837 14.5594C20.8735 14.5552 20.8602 14.5461 20.8475 14.5286C20.8408 14.5201 20.8348 14.5086 20.8287 14.4959L20.8203 14.4748L20.813 14.4162C20.7949 14.2512 20.7907 14.0645 20.8245 13.8724C20.8402 13.9998 20.8275 14.0996 20.8342 14.2186L20.8801 13.9255C20.9556 14.2796 20.9297 14.5352 20.9943 14.2603C20.8342 14.2186 20.978 13.1207 20.8179 13.0796L20.8517 12.8862C20.8499 12.9418 20.8596 12.9503 20.8577 13.0053C20.9405 12.6324 20.7266 12.7201 20.7937 12.2777C20.8287 12.1303 20.8837 12.0614 20.8747 12.1484C20.888 12.0518 20.9115 11.9714 20.9526 11.9079C21.0034 11.865 21.004 11.8946 20.9635 11.9376C21.0233 11.8542 21.1423 11.8004 21.3013 11.7714L21.2989 11.7768C21.3593 11.7381 21.5254 11.6916 21.6149 11.6759C21.7611 11.6989 21.5412 11.6928 21.5798 11.7134L21.8965 11.6741C22.0276 11.7158 21.7581 11.7545 21.5478 11.7508C21.8354 11.9079 21.8088 11.7097 22.4469 11.8028L22.1472 11.8233C22.3406 11.914 22.5744 11.8814 22.9134 11.9376C22.833 11.9079 22.2348 11.7949 22.5793 11.7551C22.6765 11.7672 22.8046 11.7726 22.9907 11.7406C22.9926 11.7974 23.1738 11.7835 23.401 11.7804L23.3853 11.856C23.5122 11.8463 23.5624 11.8312 23.6149 11.8149ZM22.2566 11.7708C22.3533 11.7055 22.4282 11.7369 22.5726 11.7557C22.488 11.7672 22.3188 11.804 22.2566 11.7708ZM22.8487 7.41234C22.9122 7.3936 23.0095 7.40267 23.1195 7.42442C23.0397 7.42865 22.9491 7.42684 22.8487 7.41234Z" fill="#EFEBE4"/>
<path d="M23.6033 7.33569C23.6369 7.3453 23.6459 7.35552 23.6525 7.36633C23.6982 7.35672 23.703 7.3459 23.6033 7.33569Z" fill="#EFEBE4"/>
<path d="M22.5493 14.6063L22.5625 14.6069C22.5697 14.6033 22.5739 14.6003 22.5757 14.5967L22.5493 14.6063Z" fill="#EFEBE4"/>
<path d="M15.6912 14.7267C15.6846 14.7129 15.6576 14.7009 15.5969 14.6973C15.639 14.7057 15.6678 14.7165 15.6912 14.7267Z" fill="#EFEBE4"/>
<path d="M15.5969 18.7986L15.8662 18.8155L15.7932 18.8028L15.5969 18.7986Z" fill="#EFEBE4"/>
<path d="M13.517 17.9432C13.529 17.8603 13.5422 17.8549 13.5615 17.8081L13.4888 17.7991L13.517 17.9432Z" fill="#EFEBE4"/>
<path d="M13.4337 16.9922C13.4536 17.0236 13.4705 17.3316 13.4874 17.049C13.4675 17.0176 13.4294 16.6021 13.4337 16.9922Z" fill="#EFEBE4"/>
<path d="M15.7536 11.0802C15.7717 11.172 15.8139 10.8048 15.8278 10.899C15.8333 10.6684 15.881 10.5512 15.7807 10.6412C15.6787 11.0174 15.8339 10.7426 15.7536 11.0802Z" fill="#EFEBE4"/>
<path d="M15.8184 10.8999C15.8202 10.9353 15.8214 10.9738 15.8232 11.0176C15.8232 10.9516 15.8214 10.9197 15.8184 10.8999Z" fill="#EFEBE4"/>
<path d="M23.2314 11.8907C23.1951 11.8708 23.1402 11.8696 23.0303 11.866L23.2132 11.9088L23.2314 11.8907Z" fill="#EFEBE4"/>
<path d="M20.919 12.4028L20.925 12.356L20.8481 12.4382L20.919 12.4028Z" fill="#EFEBE4"/>
<path d="M20.9622 14.5144C20.9562 14.5283 20.9562 14.5379 20.9917 14.488C20.9917 14.488 20.9899 14.488 20.9874 14.4898C20.9838 14.4916 20.9772 14.4916 20.9796 14.4868C20.9844 14.4874 20.9724 14.4988 20.9622 14.5144Z" fill="#EFEBE4"/>
<defs>
<linearGradient id="paint0_linear_9_2164" x1="0.00096465" y1="18.8365" x2="37.8704" y2="18.8365" gradientUnits="userSpaceOnUse">
<stop stop-color="#2A445E"/>
<stop offset="1" stop-color="#275C9C"/>
</linearGradient>
<linearGradient id="paint1_linear_9_2164" x1="18.89" y1="37.8169" x2="19.0661" y2="37.8169" gradientUnits="userSpaceOnUse">
<stop stop-color="#2A445E"/>
<stop offset="1" stop-color="#275C9C"/>
</linearGradient>
<linearGradient id="paint2_linear_9_2164" x1="21.8481" y1="37.415" x2="22.2617" y2="37.415" gradientUnits="userSpaceOnUse">
<stop stop-color="#2A445E"/>
<stop offset="1" stop-color="#275C9C"/>
</linearGradient>
<linearGradient id="paint3_linear_9_2164" x1="22.8475" y1="37.0794" x2="24.5405" y2="37.0794" gradientUnits="userSpaceOnUse">
<stop stop-color="#2A445E"/>
<stop offset="1" stop-color="#275C9C"/>
</linearGradient>
<linearGradient id="paint4_linear_9_2164" x1="25.621" y1="36.5295" x2="25.974" y2="36.5295" gradientUnits="userSpaceOnUse">
<stop stop-color="#2A445E"/>
<stop offset="1" stop-color="#275C9C"/>
</linearGradient>
<linearGradient id="paint5_linear_9_2164" x1="25.602" y1="36.5999" x2="25.7342" y2="36.5999" gradientUnits="userSpaceOnUse">
<stop stop-color="#2A445E"/>
<stop offset="1" stop-color="#275C9C"/>
</linearGradient>
<linearGradient id="paint6_linear_9_2164" x1="26.5634" y1="36.1236" x2="27.0732" y2="36.1236" gradientUnits="userSpaceOnUse">
<stop stop-color="#2A445E"/>
<stop offset="1" stop-color="#275C9C"/>
</linearGradient>
<linearGradient id="paint7_linear_9_2164" x1="27.0257" y1="35.9023" x2="27.1959" y2="35.9023" gradientUnits="userSpaceOnUse">
<stop stop-color="#2A445E"/>
<stop offset="1" stop-color="#275C9C"/>
</linearGradient>
<linearGradient id="paint8_linear_9_2164" x1="26.6562" y1="36.0487" x2="27.0199" y2="36.0487" gradientUnits="userSpaceOnUse">
<stop stop-color="#2A445E"/>
<stop offset="1" stop-color="#275C9C"/>
</linearGradient>
<linearGradient id="paint9_linear_9_2164" x1="25.8796" y1="36.3431" x2="26.44" y2="36.3431" gradientUnits="userSpaceOnUse">
<stop stop-color="#2A445E"/>
<stop offset="1" stop-color="#275C9C"/>
</linearGradient>
<linearGradient id="paint10_linear_9_2164" x1="24.1415" y1="36.8049" x2="24.6416" y2="36.8049" gradientUnits="userSpaceOnUse">
<stop stop-color="#2A445E"/>
<stop offset="1" stop-color="#275C9C"/>
</linearGradient>
<linearGradient id="paint11_linear_9_2164" x1="28.5792" y1="35.0584" x2="28.9724" y2="35.0584" gradientUnits="userSpaceOnUse">
<stop stop-color="#2A445E"/>
<stop offset="1" stop-color="#275C9C"/>
</linearGradient>
<linearGradient id="paint12_linear_9_2164" x1="28.8009" y1="34.8792" x2="29.1495" y2="34.8792" gradientUnits="userSpaceOnUse">
<stop stop-color="#2A445E"/>
<stop offset="1" stop-color="#275C9C"/>
</linearGradient>
<linearGradient id="paint13_linear_9_2164" x1="26.619" y1="35.8994" x2="27.3272" y2="35.8994" gradientUnits="userSpaceOnUse">
<stop stop-color="#2A445E"/>
<stop offset="1" stop-color="#275C9C"/>
</linearGradient>
<linearGradient id="paint14_linear_9_2164" x1="30.1138" y1="34.0877" x2="30.4204" y2="34.0877" gradientUnits="userSpaceOnUse">
<stop stop-color="#2A445E"/>
<stop offset="1" stop-color="#275C9C"/>
</linearGradient>
<linearGradient id="paint15_linear_9_2164" x1="31.0938" y1="33.1685" x2="31.7256" y2="33.1685" gradientUnits="userSpaceOnUse">
<stop stop-color="#2A445E"/>
<stop offset="1" stop-color="#275C9C"/>
</linearGradient>
<linearGradient id="paint16_linear_9_2164" x1="29.7439" y1="34.2903" x2="30.031" y2="34.2903" gradientUnits="userSpaceOnUse">
<stop stop-color="#2A445E"/>
<stop offset="1" stop-color="#275C9C"/>
</linearGradient>
<linearGradient id="paint17_linear_9_2164" x1="29.8741" y1="34.1702" x2="30.1639" y2="34.1702" gradientUnits="userSpaceOnUse">
<stop stop-color="#2A445E"/>
<stop offset="1" stop-color="#275C9C"/>
</linearGradient>
<linearGradient id="paint18_linear_9_2164" x1="28.2097" y1="35.1432" x2="28.581" y2="35.1432" gradientUnits="userSpaceOnUse">
<stop stop-color="#2A445E"/>
<stop offset="1" stop-color="#275C9C"/>
</linearGradient>
<linearGradient id="paint19_linear_9_2164" x1="29.134" y1="34.6127" x2="29.5184" y2="34.6127" gradientUnits="userSpaceOnUse">
<stop stop-color="#2A445E"/>
<stop offset="1" stop-color="#275C9C"/>
</linearGradient>
<linearGradient id="paint20_linear_9_2164" x1="29.5225" y1="34.4046" x2="29.6868" y2="34.4046" gradientUnits="userSpaceOnUse">
<stop stop-color="#2A445E"/>
<stop offset="1" stop-color="#275C9C"/>
</linearGradient>
<linearGradient id="paint21_linear_9_2164" x1="31.2605" y1="32.9223" x2="31.8564" y2="32.9223" gradientUnits="userSpaceOnUse">
<stop stop-color="#2A445E"/>
<stop offset="1" stop-color="#275C9C"/>
</linearGradient>
<linearGradient id="paint22_linear_9_2164" x1="30.6685" y1="33.6723" x2="30.7028" y2="33.6723" gradientUnits="userSpaceOnUse">
<stop stop-color="#2A445E"/>
<stop offset="1" stop-color="#275C9C"/>
</linearGradient>
<linearGradient id="paint23_linear_9_2164" x1="33.4243" y1="30.983" x2="33.4552" y2="30.983" gradientUnits="userSpaceOnUse">
<stop stop-color="#2A445E"/>
<stop offset="1" stop-color="#275C9C"/>
</linearGradient>
<linearGradient id="paint24_linear_9_2164" x1="30.9462" y1="33.2977" x2="31.2811" y2="33.2977" gradientUnits="userSpaceOnUse">
<stop stop-color="#2A445E"/>
<stop offset="1" stop-color="#275C9C"/>
</linearGradient>
<linearGradient id="paint25_linear_9_2164" x1="32.2031" y1="32.254" x2="32.4514" y2="32.254" gradientUnits="userSpaceOnUse">
<stop stop-color="#2A445E"/>
<stop offset="1" stop-color="#275C9C"/>
</linearGradient>
<linearGradient id="paint26_linear_9_2164" x1="30.743" y1="33.6355" x2="30.7839" y2="33.6355" gradientUnits="userSpaceOnUse">
<stop stop-color="#2A445E"/>
<stop offset="1" stop-color="#275C9C"/>
</linearGradient>
<linearGradient id="paint27_linear_9_2164" x1="30.705" y1="33.5576" x2="30.9485" y2="33.5576" gradientUnits="userSpaceOnUse">
<stop stop-color="#2A445E"/>
<stop offset="1" stop-color="#275C9C"/>
</linearGradient>
<linearGradient id="paint28_linear_9_2164" x1="32.7396" y1="31.3704" x2="33.4181" y2="31.3704" gradientUnits="userSpaceOnUse">
<stop stop-color="#2A445E"/>
<stop offset="1" stop-color="#275C9C"/>
</linearGradient>
<linearGradient id="paint29_linear_9_2164" x1="31.8524" y1="32.1907" x2="32.7432" y2="32.1907" gradientUnits="userSpaceOnUse">
<stop stop-color="#2A445E"/>
<stop offset="1" stop-color="#275C9C"/>
</linearGradient>
<linearGradient id="paint30_linear_9_2164" x1="28.5609" y1="34.6971" x2="29.4044" y2="34.6971" gradientUnits="userSpaceOnUse">
<stop stop-color="#2A445E"/>
<stop offset="1" stop-color="#275C9C"/>
</linearGradient>
<linearGradient id="paint31_linear_9_2164" x1="29.4113" y1="34.4828" x2="29.4412" y2="34.4828" gradientUnits="userSpaceOnUse">
<stop stop-color="#2A445E"/>
<stop offset="1" stop-color="#275C9C"/>
</linearGradient>
<linearGradient id="paint32_linear_9_2164" x1="30.6868" y1="33.2944" x2="31.2102" y2="33.2944" gradientUnits="userSpaceOnUse">
<stop stop-color="#EC3338"/>
<stop offset="1" stop-color="#EC3338"/>
</linearGradient>
<linearGradient id="paint33_linear_9_2164" x1="33.4978" y1="30.8378" x2="33.7027" y2="30.8378" gradientUnits="userSpaceOnUse">
<stop stop-color="#2A445E"/>
<stop offset="1" stop-color="#275C9C"/>
</linearGradient>
<linearGradient id="paint34_linear_9_2164" x1="34.0709" y1="30.1252" x2="34.2087" y2="30.1252" gradientUnits="userSpaceOnUse">
<stop stop-color="#2A445E"/>
<stop offset="1" stop-color="#275C9C"/>
</linearGradient>
<linearGradient id="paint35_linear_9_2164" x1="34.7181" y1="8.60051" x2="34.9924" y2="8.60051" gradientUnits="userSpaceOnUse">
<stop stop-color="#2A445E"/>
<stop offset="1" stop-color="#275C9C"/>
</linearGradient>
<linearGradient id="paint36_linear_9_2164" x1="37.6211" y1="21.2166" x2="37.7491" y2="21.2166" gradientUnits="userSpaceOnUse">
<stop stop-color="#2A445E"/>
<stop offset="1" stop-color="#275C9C"/>
</linearGradient>
<linearGradient id="paint37_linear_9_2164" x1="37.7507" y1="20.5166" x2="37.8047" y2="20.5166" gradientUnits="userSpaceOnUse">
<stop stop-color="#2A445E"/>
<stop offset="1" stop-color="#275C9C"/>
</linearGradient>
<linearGradient id="paint38_linear_9_2164" x1="16.0237" y1="37.5356" x2="16.3766" y2="37.5356" gradientUnits="userSpaceOnUse">
<stop stop-color="#2A445E"/>
<stop offset="1" stop-color="#275C9C"/>
</linearGradient>
<linearGradient id="paint39_linear_9_2164" x1="35.9753" y1="27.06" x2="36.0139" y2="27.06" gradientUnits="userSpaceOnUse">
<stop stop-color="#2A445E"/>
<stop offset="1" stop-color="#275C9C"/>
</linearGradient>
<linearGradient id="paint40_linear_9_2164" x1="35.4392" y1="27.7547" x2="35.4568" y2="27.7547" gradientUnits="userSpaceOnUse">
<stop stop-color="#2A445E"/>
<stop offset="1" stop-color="#275C9C"/>
</linearGradient>
<linearGradient id="paint41_linear_9_2164" x1="35.8647" y1="27.1635" x2="35.9847" y2="27.1635" gradientUnits="userSpaceOnUse">
<stop stop-color="#2A445E"/>
<stop offset="1" stop-color="#275C9C"/>
</linearGradient>
<linearGradient id="paint42_linear_9_2164" x1="35.8274" y1="27.3287" x2="35.9059" y2="27.3287" gradientUnits="userSpaceOnUse">
<stop stop-color="#EC3338"/>
<stop offset="1" stop-color="#EC3338"/>
</linearGradient>
<linearGradient id="paint43_linear_9_2164" x1="35.9748" y1="26.9119" x2="36.1163" y2="26.9119" gradientUnits="userSpaceOnUse">
<stop stop-color="#EC3338"/>
<stop offset="1" stop-color="#EC3338"/>
</linearGradient>
<linearGradient id="paint44_linear_9_2164" x1="35.0513" y1="28.6225" x2="35.263" y2="28.6225" gradientUnits="userSpaceOnUse">
<stop stop-color="#2A445E"/>
<stop offset="1" stop-color="#275C9C"/>
</linearGradient>
<linearGradient id="paint45_linear_9_2164" x1="34.3856" y1="29.2992" x2="34.7261" y2="29.2992" gradientUnits="userSpaceOnUse">
<stop stop-color="#2A445E"/>
<stop offset="1" stop-color="#275C9C"/>
</linearGradient>
<linearGradient id="paint46_linear_9_2164" x1="34.1632" y1="29.7112" x2="34.3256" y2="29.7112" gradientUnits="userSpaceOnUse">
<stop stop-color="#EC3338"/>
<stop offset="1" stop-color="#EC3338"/>
</linearGradient>
<linearGradient id="paint47_linear_9_2164" x1="36.2155" y1="26.3909" x2="36.3774" y2="26.3909" gradientUnits="userSpaceOnUse">
<stop stop-color="#EC3338"/>
<stop offset="1" stop-color="#EC3338"/>
</linearGradient>
<linearGradient id="paint48_linear_9_2164" x1="35.4211" y1="27.4644" x2="35.6781" y2="27.4644" gradientUnits="userSpaceOnUse">
<stop stop-color="#EC3338"/>
<stop offset="1" stop-color="#EC3338"/>
</linearGradient>
<linearGradient id="paint49_linear_9_2164" x1="35.2362" y1="27.8984" x2="35.4205" y2="27.8984" gradientUnits="userSpaceOnUse">
<stop stop-color="#2A445E"/>
<stop offset="1" stop-color="#275C9C"/>
</linearGradient>
<linearGradient id="paint50_linear_9_2164" x1="17.8175" y1="37.7646" x2="18.2107" y2="37.7646" gradientUnits="userSpaceOnUse">
<stop stop-color="#2A445E"/>
<stop offset="1" stop-color="#275C9C"/>
</linearGradient>
<linearGradient id="paint51_linear_9_2164" x1="18.5574" y1="37.7429" x2="18.8854" y2="37.7429" gradientUnits="userSpaceOnUse">
<stop stop-color="#2A445E"/>
<stop offset="1" stop-color="#275C9C"/>
</linearGradient>
</defs>
</svg>
