<svg width="39" height="38" viewBox="0 0 39 38" fill="none" xmlns="http://www.w3.org/2000/svg">
<g clip-path="url(#clip0_9_2242)">
<path d="M38.5583 18.922C38.5583 8.47152 30.0865 -0.000244141 19.6361 -0.000244141C9.18563 -0.000244141 0.713867 8.47152 0.713867 18.922C0.713867 29.3724 9.18563 37.8442 19.6361 37.8442C30.0865 37.8442 38.5583 29.3724 38.5583 18.922Z" fill="url(#paint0_linear_9_2242)"/>
<path d="M16.4868 18.9703C16.4868 17.227 17.8991 15.8135 19.6418 15.8135C21.3846 15.8135 22.7977 17.227 22.7977 18.9703C22.7977 20.7135 21.3846 22.127 19.6418 22.127C17.8991 22.127 16.4868 20.7135 16.4868 18.9703ZM14.7808 18.9703C14.7808 21.6558 16.9571 23.8327 19.6418 23.8327C22.3266 23.8327 24.5029 21.6558 24.5029 18.9703C24.5029 16.2847 22.3266 14.1078 19.6418 14.1078C16.9571 14.1078 14.7808 16.2847 14.7808 18.9703ZM23.5593 13.915C23.5593 14.1397 23.6258 14.3594 23.7505 14.5464C23.8753 14.7333 24.0527 14.879 24.2602 14.9651C24.4677 15.0512 24.6962 15.0738 24.9166 15.03C25.1369 14.9863 25.3394 14.8781 25.4983 14.7192C25.6573 14.5604 25.7655 14.358 25.8095 14.1376C25.8534 13.9172 25.831 13.6887 25.7451 13.481C25.6592 13.2733 25.5137 13.0958 25.3269 12.9709C25.1401 12.8459 24.9205 12.7792 24.6958 12.7791H24.6954C24.3942 12.7792 24.1054 12.8989 23.8924 13.1119C23.6794 13.3249 23.5596 13.6137 23.5593 13.915ZM15.8173 26.6782C14.8943 26.6362 14.3926 26.4824 14.0592 26.3525C13.6173 26.1804 13.3019 25.9753 12.9703 25.6442C12.6388 25.313 12.4335 24.9978 12.2622 24.5557C12.1322 24.2224 11.9785 23.7204 11.9366 22.7972C11.8907 21.799 11.8815 21.4992 11.8815 18.9703C11.8815 16.4415 11.8914 16.1425 11.9366 15.1435C11.9786 14.2203 12.1335 13.7193 12.2622 13.385C12.4343 12.9429 12.6392 12.6274 12.9703 12.2958C13.3015 11.9641 13.6165 11.7588 14.0592 11.5874C14.3925 11.4574 14.8943 11.3036 15.8173 11.2617C16.8151 11.2158 17.1149 11.2066 19.6418 11.2066C22.1688 11.2066 22.4689 11.2166 23.4675 11.2617C24.3905 11.3037 24.8914 11.4586 25.2256 11.5874C25.6676 11.7588 25.9829 11.9645 26.3145 12.2958C26.6461 12.627 26.8505 12.9429 27.0226 13.385C27.1526 13.7183 27.3063 14.2203 27.3483 15.1435C27.3942 16.1425 27.4033 16.4415 27.4033 18.9703C27.4033 21.4992 27.3942 21.7982 27.3483 22.7972C27.3062 23.7204 27.1517 24.2222 27.0226 24.5557C26.8505 24.9978 26.6456 25.3132 26.3145 25.6442C25.9834 25.9751 25.6676 26.1804 25.2256 26.3525C24.8923 26.4825 24.3905 26.6362 23.4675 26.6782C22.4697 26.7241 22.1699 26.7333 19.6418 26.7333C17.1138 26.7333 16.8148 26.7241 15.8173 26.6782ZM15.7389 9.5581C14.7311 9.60398 14.0424 9.76385 13.441 9.99792C12.8182 10.2397 12.2909 10.564 11.764 11.0902C11.2372 11.6164 10.9138 12.1446 10.6721 12.7676C10.4381 13.3696 10.2783 14.0581 10.2324 15.0661C10.1858 16.0758 10.175 16.3987 10.175 18.9703C10.175 21.5419 10.1858 21.8647 10.2324 22.8744C10.2783 23.8825 10.4381 24.5709 10.6721 25.1729C10.9138 25.7955 11.2372 26.3244 11.764 26.8503C12.2908 27.3763 12.8182 27.7002 13.441 27.9426C14.0436 28.1767 14.7311 28.3365 15.7389 28.3824C16.7488 28.4283 17.071 28.4398 19.6418 28.4398C22.2127 28.4398 22.5354 28.4291 23.5448 28.3824C24.5527 28.3365 25.2409 28.1767 25.8427 27.9426C26.4651 27.7002 26.9928 27.3765 27.5197 26.8503C28.0465 26.3242 28.3692 25.7955 28.6116 25.1729C28.8456 24.5709 29.0062 23.8825 29.0513 22.8744C29.0972 21.8639 29.1079 21.5419 29.1079 18.9703C29.1079 16.3987 29.0972 16.0758 29.0513 15.0661C29.0054 14.058 28.8456 13.3692 28.6116 12.7676C28.3692 12.145 28.0457 11.6172 27.5197 11.0902C26.9936 10.5631 26.4651 10.2397 25.8434 9.99792C25.2409 9.76385 24.5526 9.60324 23.5456 9.5581C22.5362 9.51218 22.2135 9.50073 19.6426 9.50073C17.0717 9.50073 16.7488 9.5114 15.7389 9.5581Z" fill="white"/>
</g>
<defs>
<linearGradient id="paint0_linear_9_2242" x1="37.831" y1="37.8442" x2="-0.0135029" y2="-0.000244054" gradientUnits="userSpaceOnUse">
<stop stop-color="#FBE18A"/>
<stop offset="0.21" stop-color="#FCBB45"/>
<stop offset="0.38" stop-color="#F75274"/>
<stop offset="0.52" stop-color="#D53692"/>
<stop offset="0.74" stop-color="#8F39CE"/>
<stop offset="1" stop-color="#5B4FE9"/>
</linearGradient>
<clipPath id="clip0_9_2242">
<rect width="37.8444" height="37.8444" fill="white" transform="translate(0.713867 -0.000244141)"/>
</clipPath>
</defs>
</svg>
