<svg width="43" height="43" viewBox="0 0 43 43" fill="none" xmlns="http://www.w3.org/2000/svg">
<rect x="0.000732422" y="0.377686" width="42.575" height="42.575" rx="21.2875" fill="#FFC6C8" fill-opacity="0.15"/>
<path d="M13.1301 21.3084L16.8451 17.5934C17.169 17.2694 17.2494 16.7745 17.0445 16.3648L14.8549 11.9855C14.53 11.3357 13.6639 11.1952 13.1502 11.7089L11.6248 13.2343C11.2256 13.6335 10.9954 14.1757 11.0224 14.7396C11.4683 24.0311 18.9224 31.4852 28.214 31.9311C28.7779 31.9581 29.3199 31.7279 29.7192 31.3287L31.2445 29.8033C31.7583 29.2895 31.6177 28.4236 30.9679 28.0986L26.5888 25.909C26.179 25.7041 25.684 25.7844 25.36 26.1084L21.6451 29.8234" stroke="white" stroke-width="1.59656" stroke-linecap="round" stroke-linejoin="round"/>
</svg>
