<svg width="39" height="38" viewBox="0 0 39 38" fill="none" xmlns="http://www.w3.org/2000/svg">
<g clip-path="url(#clip0_9_2243)">
<path d="M15.4221 24.1258L25.6519 18.8335L15.4221 13.4968V24.1258Z" fill="white"/>
<path opacity="0.12" d="M15.4221 13.4968L24.3954 19.4839L25.6519 18.8335L15.4221 13.4968Z" fill="#420000"/>
<path d="M37.9257 11.7268C37.9257 11.7268 37.5563 9.12496 36.4184 7.97189C34.985 6.46402 33.3743 6.46402 32.6207 6.37532C27.3452 5.99097 19.4098 5.99097 19.4098 5.99097H19.3951C19.3951 5.99097 11.4597 5.99097 6.15467 6.37532C5.41581 6.46402 3.8051 6.46402 2.35693 7.97189C1.23386 9.12496 0.864432 11.7268 0.864432 11.7268C0.864432 11.7268 0.480225 14.8016 0.480225 17.8617V20.7296C0.480225 23.7897 0.864432 26.8498 0.864432 26.8498C0.864432 26.8498 1.23386 29.4516 2.37171 30.6046C3.8051 32.1125 5.69658 32.0682 6.53888 32.216C9.56821 32.5116 19.3951 32.6003 19.3951 32.6003C19.3951 32.6003 27.3452 32.5856 32.6354 32.2012C33.3743 32.1125 34.985 32.1125 36.4332 30.6046C37.571 29.4516 37.9405 26.8498 37.9405 26.8498C37.9405 26.8498 38.3247 23.7897 38.3247 20.7296V17.8617C38.3099 14.8016 37.9257 11.7268 37.9257 11.7268ZM15.4939 24.2036V13.5746L25.7197 18.9113L15.4939 24.2036Z" fill="url(#paint0_linear_9_2243)"/>
</g>
<defs>
<linearGradient id="paint0_linear_9_2243" x1="4842.68" y1="5.99101" x2="4842.68" y2="4797.12" gradientUnits="userSpaceOnUse">
<stop stop-color="#E52D27"/>
<stop offset="1" stop-color="#BF171D"/>
</linearGradient>
<clipPath id="clip0_9_2243">
<rect width="37.8444" height="37.8444" fill="white" transform="translate(0.402588)"/>
</clipPath>
</defs>
</svg>
